<?xml version="1.0" encoding="utf-8"?>
<!-- Generator: Adobe Illustrator 27.6.1, SVG Export Plug-In . SVG Version: 6.00 Build 0)  -->
<svg version="1.1" id="Capa_1" xmlns="http://www.w3.org/2000/svg" xmlns:xlink="http://www.w3.org/1999/xlink" x="0px" y="0px"
	 viewBox="0 0 512 512" style="enable-background:new 0 0 512 512;" xml:space="preserve">
<style type="text/css">
	.st0{fill:#FFFFFF;}
</style>
<g>
	<path class="st0" d="M490.7,234.7H448V192c0-11.8-9.6-21.3-21.3-21.3s-21.3,9.6-21.3,21.3v42.7h-42.7c-11.8,0-21.3,9.6-21.3,21.3
		s9.6,21.3,21.3,21.3h42.7V320c0,11.8,9.6,21.3,21.3,21.3S448,331.8,448,320v-42.7h42.7c11.8,0,21.3-9.6,21.3-21.3
		C512,244.2,502.4,234.7,490.7,234.7z"/>
	<circle class="st0" cx="192" cy="128" r="128"/>
	<path class="st0" d="M192,298.7c-106,0.1-191.9,86-192,192C0,502.4,9.6,512,21.3,512h341.3c11.8,0,21.3-9.6,21.3-21.3
		C383.9,384.7,298,298.8,192,298.7z"/>
</g>
</svg>
