<?xml version="1.0" encoding="utf-8"?>
<!-- Generator: Adobe Illustrator 27.6.1, SVG Export Plug-In . SVG Version: 6.00 Build 0)  -->
<svg version="1.1" id="Layer_1" xmlns="http://www.w3.org/2000/svg" xmlns:xlink="http://www.w3.org/1999/xlink" x="0px" y="0px"
	 viewBox="0 0 512 512" style="enable-background:new 0 0 512 512;" xml:space="preserve">
<style type="text/css">
	.st0{fill:#FFFFFF;}
</style>
<path class="st0" d="M362.7,256c0,5.9-4.8,10.7-10.7,10.7H160c-5.9,0-10.7-4.8-10.7-10.7s4.8-10.7,10.7-10.7h192
	C357.9,245.3,362.7,250.1,362.7,256z M512,96v320c0,52.9-43.1,96-96,96H96c-52.9,0-96-43.1-96-96V96C0,43.1,43.1,0,96,0h320
	C468.9,0,512,43.1,512,96z M490.7,96c0-41.2-33.5-74.7-74.7-74.7H96c-41.2,0-74.7,33.5-74.7,74.7v320c0,41.2,33.5,74.7,74.7,74.7
	h320c41.2,0,74.7-33.5,74.7-74.7V96z"/>
</svg>
