<?xml version="1.0" encoding="utf-8"?>
<!-- Generator: Adobe Illustrator 27.6.1, SVG Export Plug-In . SVG Version: 6.00 Build 0)  -->
<svg version="1.1" id="Isolation_Mode" xmlns="http://www.w3.org/2000/svg" xmlns:xlink="http://www.w3.org/1999/xlink" x="0px"
	 y="0px" viewBox="0 0 512 512" style="enable-background:new 0 0 512 512;" xml:space="preserve">
<style type="text/css">
	.st0{fill:#FFFFFF;}
</style>
<path class="st0" d="M504.7,366.2l-77.4-77.4v62.7c-50.6-3.3-97.8-26.3-131.7-64c-4.3,4.9-8.5,9.7-13,14.9
	c-9.4,10.8-19.2,22.1-29.3,33.3c45.5,48.1,107.8,76.8,174,79.9v61.2l77.4-77.4C513.7,390.3,513.5,375.4,504.7,366.2z"/>
<path class="st0" d="M426.9,160.3v61.9l77.7-77.7c9.2-9.2,9.2-24.2,0-33.4l-77.7-77.7v62.8c-96.6,4.5-154.7,57-203.2,111.1
	C172.1,150.2,109.2,95.7-0.4,95.7v64.1c87.2,0,134.2,42.5,181.8,96.2c-47.6,53.7-94.5,96.1-181.8,96.1v64.1
	c129,0,193.3-75.4,250.8-141.9C300.8,216,344.8,165.3,426.9,160.3z"/>
</svg>
