<?xml version="1.0" encoding="utf-8"?>
<!-- Generator: Adobe Illustrator 27.6.1, SVG Export Plug-In . SVG Version: 6.00 Build 0)  -->
<svg version="1.1" id="Layer_1" xmlns="http://www.w3.org/2000/svg" xmlns:xlink="http://www.w3.org/1999/xlink" x="0px" y="0px"
	 viewBox="0 0 512 512" style="enable-background:new 0 0 512 512;" xml:space="preserve">
<style type="text/css">
	.st0{fill:#FFFFFF;}
</style>
<path class="st0" d="M448,448v64h-42.7v-64c0-23.5-19.1-42.7-42.7-42.7H149.3c-23.5,0-42.7,19.1-42.7,42.7v64H64v-64
	c0-47.1,38.3-85.3,85.3-85.3h213.3C409.7,362.7,448,400.9,448,448z M469.3,128v106.7h-42.7V320H85.3v-85.3H42.7V128h42.7v-21.3
	c0-35.3,28.7-64,64-64h85.3V0h42.7v42.7h85.3c35.3,0,64,28.7,64,64V128H469.3z M384,106.7c0-11.8-9.6-21.3-21.3-21.3H149.3
	c-11.8,0-21.3,9.6-21.3,21.3v170.7h256V106.7z M202.7,149.3c-17.7,0-32,14.3-32,32s14.3,32,32,32s32-14.3,32-32
	S220.3,149.3,202.7,149.3z M309.3,149.3c-17.7,0-32,14.3-32,32s14.3,32,32,32s32-14.3,32-32S327,149.3,309.3,149.3z"/>
</svg>
