<?xml version="1.0" encoding="utf-8"?>
<!-- Generator: Adobe Illustrator 27.6.1, SVG Export Plug-In . SVG Version: 6.00 Build 0)  -->
<svg version="1.1" id="Layer_1" xmlns="http://www.w3.org/2000/svg" xmlns:xlink="http://www.w3.org/1999/xlink" x="0px" y="0px"
	 viewBox="0 0 512 512" style="enable-background:new 0 0 512 512;" xml:space="preserve">
<style type="text/css">
	.st0{fill:#FFFFFF;}
</style>
<path class="st0" d="M160,277.3c-53,0-96-43-96-96s43-96,96-96s96,43,96,96C255.9,234.3,213,277.3,160,277.3z M320,426.7
	c-0.1-58.9-47.8-106.6-106.7-106.7H106.7C47.8,320.1,0.1,367.8,0,426.7V512h320V426.7z M373.3,192c-53,0-96-43-96-96s43-96,96-96
	s96,43,96,96C469.3,149,426.3,191.9,373.3,192z M405.3,234.7H298.7c-3.7,0.2-7.5,0.5-11.2,1.1c-7.8,17.9-19.2,34.1-33.6,47.3
	c64.3,18.2,108.7,76.8,108.8,143.6H512v-85.3C511.9,282.5,464.2,234.7,405.3,234.7z"/>
</svg>
